<svg width="72" height="72" viewBox="0 0 72 72" fill="none" xmlns="http://www.w3.org/2000/svg">
<rect width="72" height="72" rx="5" fill="#003061"/>
<path d="M46 40.9201V43.9201C46.0011 44.1986 45.9441 44.4743 45.8325 44.7294C45.7209 44.9846 45.5573 45.2137 45.3521 45.402C45.1468 45.5902 44.9046 45.7336 44.6407 45.8228C44.3769 45.912 44.0974 45.9452 43.82 45.9201C40.7428 45.5857 37.787 44.5342 35.19 42.8501C32.7738 41.3148 30.7253 39.2663 29.19 36.8501C27.5 34.2413 26.4482 31.2711 26.12 28.1801C26.095 27.9036 26.1279 27.6249 26.2165 27.3617C26.3051 27.0986 26.4476 26.8568 26.6348 26.6517C26.822 26.4466 27.0498 26.2828 27.3038 26.1706C27.5578 26.0584 27.8323 26.0004 28.11 26.0001H31.11C31.5953 25.9953 32.0658 26.1672 32.4338 26.4836C32.8017 26.8001 33.0421 27.2395 33.11 27.7201C33.2366 28.6802 33.4714 29.6228 33.81 30.5301C33.9445 30.888 33.9737 31.277 33.8939 31.651C33.8141 32.0249 33.6289 32.3682 33.36 32.6401L32.09 33.9101C33.5135 36.4136 35.5864 38.4865 38.09 39.9101L39.36 38.6401C39.6319 38.3712 39.9751 38.1859 40.3491 38.1062C40.7231 38.0264 41.1121 38.0556 41.47 38.1901C42.3773 38.5286 43.3199 38.7635 44.28 38.8901C44.7658 38.9586 45.2094 39.2033 45.5265 39.5776C45.8437 39.9519 46.0122 40.4297 46 40.9201Z" stroke="white" stroke-width="2" stroke-linecap="round" stroke-linejoin="round"/>
</svg>
