<svg width="123" height="62" viewBox="0 0 123 62" fill="none" xmlns="http://www.w3.org/2000/svg">
<path d="M9.57568 13.3278C8.81821 11.4027 9.14705 9.18914 9.84479 7.32747C10.5789 5.36851 11.8572 3.41492 13.7677 2.38464C13.8625 4.44901 13.2319 6.48857 12.5428 8.3277C11.9232 9.98191 11.1629 11.7443 9.90738 13.1123C9.71447 14.1489 9.56662 15.1826 9.46265 16.2116C9.87877 15.1246 10.5535 14.1338 11.3954 13.3371C12.4793 12.3112 14.0916 11.5196 15.6052 11.9877C15.1619 13.6608 14.1514 15.2645 12.9547 16.3896C12.0127 17.2751 10.7693 18.4099 9.30467 18.4544C9.24434 19.9687 9.27844 21.4691 9.40304 22.9491C9.60966 21.866 10.0524 20.8461 10.692 20.0866C11.5708 19.043 12.8737 17.7679 14.5377 17.9812C14.4468 19.6745 13.7714 21.4095 12.8308 22.7131C12.0833 23.7491 11.0966 25.0695 9.69599 25.4106C9.92026 26.8649 10.2326 28.295 10.629 29.6945C10.6328 28.6229 10.8695 27.5712 11.339 26.7276C12.0007 25.5381 13.0313 24.0546 14.6972 23.9386C14.9414 25.5998 14.6105 27.4158 13.9431 28.8602C13.4096 30.0147 12.6984 31.487 11.4021 32.0961C11.9464 33.6018 12.5906 35.0653 13.3293 36.478C13.07 35.2604 13.0803 33.9773 13.3872 32.8229C13.8101 31.2315 14.86 29.5597 16.5454 29.0746C17.1412 30.8316 17.0591 32.7924 16.7129 34.5783C16.4281 36.0486 15.8684 37.7756 14.6139 38.7307C15.4341 40.0543 16.3414 41.3246 17.3309 42.5332C16.7993 41.3478 16.535 40.0514 16.6768 38.8645C16.8833 37.1354 17.3692 35.2857 19.1353 34.3638C20.1374 36.0926 20.3695 38.0321 20.4546 39.9478C20.5234 41.4965 20.3003 43.4067 19.2248 44.6666C20.4079 45.8967 21.6845 47.048 23.048 48.1096C22.1677 46.9804 21.5513 45.6553 21.4208 44.3448C21.2364 42.4933 21.3266 40.455 22.9697 39.0963C24.3749 40.564 25.2135 42.7255 25.6245 44.603C25.9879 46.2629 26.3673 48.2276 25.502 49.8611C27.2373 50.9938 29.0898 51.9918 31.0484 52.8369C29.6702 51.8548 28.5421 50.5074 28.0046 49.1162C27.3003 47.2926 26.8646 45.1196 28.2366 43.2932C30.0748 44.4706 31.4258 46.4794 32.4901 48.3115C33.4035 49.8836 34.3488 52.0533 33.8798 53.9256C34.9642 54.2935 36.0766 54.6167 37.2156 54.8923L37.1479 55.1719C36.0046 54.8952 34.8879 54.571 33.7991 54.202C33.0362 56.4563 30.5373 57.201 28.5163 57.5298C25.6368 57.9983 22.208 57.0906 19.7497 55.2621C21.0472 53.4284 23.6945 53.2424 25.6907 53.1021L25.7166 53.1003C27.9035 52.9466 30.2686 53.1519 32.4677 53.7233C29.9273 52.7562 27.5502 51.5403 25.3582 50.1108L25.3259 50.1618C24.1248 52.1095 21.7132 52.1854 19.8203 52.0623C17.2517 51.8951 14.2862 50.3333 12.5699 48.1744C14.1843 46.7579 16.5688 47.1544 18.4164 47.4615L18.4253 47.4629C20.4874 47.8057 22.7408 48.5535 24.6322 49.705C24.4521 49.5631 24.2757 49.413 24.1044 49.2556C22.2654 47.9444 20.569 46.4777 19.0296 44.8786C19.0117 44.8965 18.9936 44.9143 18.9753 44.9319C17.4785 46.4377 15.2985 46.0434 13.5972 45.5533C11.3205 44.8976 8.95938 42.9192 7.82788 40.6479C9.58129 39.6655 11.6776 40.4751 13.3082 41.1154C15.0978 41.8183 16.9913 42.9427 18.4473 44.3759C18.2972 44.1866 18.154 43.9888 18.0186 43.7841C16.6654 42.2567 15.448 40.6212 14.3778 38.8958L14.3241 38.9295C12.6308 40.0222 10.7123 39.2309 9.19176 38.4527C7.13014 37.3976 5.47343 35.0788 4.75757 32.7984C6.58645 32.2126 8.39339 33.3623 9.79805 34.2729C11.3343 35.2687 12.8905 36.689 13.9587 38.3178C13.8802 38.1573 13.8072 37.9933 13.7398 37.8261C12.7135 36.0355 11.8415 34.1557 11.1357 32.2057L11.0993 32.2181L11.0964 32.2192C9.55673 32.8045 7.84219 31.8945 6.7244 30.8965C5.17082 29.5096 4.07581 27.3774 3.8191 25.2944C5.42431 25.0864 6.93663 26.3283 7.9706 27.3876C9.16076 28.6067 10.2289 30.0476 10.8857 31.648C10.8377 31.4742 10.7966 31.2976 10.762 31.1193C10.1644 29.2868 9.71173 27.397 9.41329 25.465L9.39004 25.4678L9.38217 25.4692C7.75443 25.7409 6.2495 24.5034 5.35038 23.3024C4.08892 21.617 3.43864 19.2845 3.60163 17.1705C5.22304 17.2838 6.45768 18.8263 7.25831 20.0741C8.18498 21.5186 8.95342 23.1533 9.29001 24.8636C9.27975 24.7275 9.27367 24.5907 9.27153 24.4534C9.02436 22.4871 8.93625 20.4804 9.01685 18.449L9.0122 18.4487C7.35728 18.3891 6.13421 16.8526 5.50276 15.4897C4.59923 13.5393 4.45377 11.0739 5.05684 8.99623C6.63414 9.43893 7.51347 11.2483 8.03248 12.641C8.6309 14.2468 9.04856 15.9982 9.0519 17.7394C9.13799 16.2786 9.31135 14.8062 9.57568 13.3278Z" fill="#9F9F9F"/>
<path d="M42.17 9.72375V16.6985C42.17 19.7662 39.3917 21.2422 35.1808 21.2422C31.2449 21.2422 28.4232 19.7808 28.4232 16.3368V9.72375H32.3447V16.3368C32.3447 17.5668 33.401 18.3336 35.34 18.3336C37.1923 18.3336 38.292 17.5378 38.292 16.3512V9.72375H42.17Z" fill="#9F9F9F"/>
<path d="M55.2304 18.0587V21.083H44.3921V9.72375H48.3136V18.0587H55.2304Z" fill="#9F9F9F"/>
<path d="M66.8846 12.5744V9.72375H53.3258V12.5744H58.1156V21.083H62.0805V12.5744H66.8846Z" fill="#9F9F9F"/>
<path fill-rule="evenodd" clip-rule="evenodd" d="M80.7944 10.8815C81.3154 11.4168 81.5622 12.1549 81.5622 13.1822C81.5622 14.0649 81.3452 14.8174 80.9827 15.3238C80.5773 15.8737 79.955 16.3368 79.1883 16.4525L82.6186 21.083H78.306L75.4838 17.0747H71.9679V21.083H68.1043V9.72375H77.1483C78.9427 9.72375 80.1147 10.1579 80.7944 10.8815ZM77.6693 14.1373C77.7707 13.9636 77.7993 13.7321 77.7993 13.544C77.7993 13.3269 77.7707 13.0954 77.6693 12.9507C77.4666 12.5744 77.0612 12.4732 76.4532 12.4732H71.9824V14.5425H76.5259C77.1483 14.5425 77.525 14.4267 77.6693 14.1373Z" fill="#9F9F9F"/>
<path fill-rule="evenodd" clip-rule="evenodd" d="M87.8385 18.9849H93.9741L94.9721 21.083H99.1547L93.4245 9.72375H88.7506L82.6877 21.083H86.7821L87.8385 18.9849ZM92.7437 16.438H89.1119L90.545 13.7032L90.979 12.6612L91.3844 13.6887L92.7437 16.438Z" fill="#9F9F9F"/>
<path fill-rule="evenodd" clip-rule="evenodd" d="M80.3806 23.2223C77.9531 23.2223 76.6761 24.3729 76.6761 26.0636C76.6761 27.9718 78.0163 28.9399 80.3806 28.9399C82.9834 28.9399 84.078 27.8174 84.078 26.0636C84.078 24.2817 82.8427 23.2223 80.3806 23.2223ZM80.3806 27.5299C78.9987 27.5299 78.5981 26.9616 78.5981 26.0847C78.5981 25.2218 79.0333 24.6535 80.3735 24.6535C81.84 24.6535 82.1691 25.2919 82.1691 26.0847C82.1691 26.9266 81.7697 27.5299 80.3806 27.5299Z" fill="#9F9F9F"/>
<path d="M73.0781 28.8558V25.5936H69.416V26.7792H71.3733C71.3594 26.8705 71.2892 27.0458 71.198 27.151C70.9945 27.3896 70.4543 27.6 69.7528 27.6C69.0232 27.6 68.5532 27.4106 68.3006 27.1159C68.1323 26.8985 68.034 26.5898 68.034 26.1268C68.034 25.6427 68.1323 25.3131 68.3216 25.0956C68.5953 24.7869 69.0582 24.6536 69.7388 24.6536C70.3491 24.6536 70.77 24.7938 70.9665 24.9692C71.0928 25.0745 71.1909 25.2218 71.212 25.32H73.029C73.0221 25.1446 72.9659 24.864 72.8677 24.6606C72.4327 23.7767 71.4225 23.2505 69.7037 23.2505C68.2094 23.2505 67.2062 23.7064 66.652 24.394C66.2872 24.864 66.1188 25.4533 66.1188 26.1127C66.1188 26.8424 66.3152 27.4667 66.638 27.8807C67.1851 28.5893 68.1603 28.9399 69.3319 28.9399C70.3632 28.9399 71.0717 28.6944 71.5207 28.3227L71.5698 28.8558H73.0781Z" fill="#9F9F9F"/>
<path d="M53.9677 25.5235C55.3917 25.6778 56.0021 26.1829 56.0021 27.1441C56.0021 28.3086 54.8656 28.9399 52.6276 28.9399C50.5441 28.9399 49.6461 28.3507 49.3023 27.579C49.2251 27.3966 49.1901 27.1721 49.169 27.0317H51.1895C51.2035 27.1159 51.2527 27.2422 51.3228 27.3264C51.4911 27.5299 51.9611 27.6491 52.7609 27.6491C53.7923 27.6491 54.0378 27.5017 54.0378 27.2282C54.0378 26.9335 53.7852 26.8704 52.8521 26.7722C52.4804 26.7371 51.891 26.681 51.6455 26.66C49.8636 26.4985 49.2042 25.9444 49.2042 24.9973C49.2042 24.0151 50.3687 23.2645 52.4943 23.2645C54.3815 23.2645 55.2584 23.8257 55.6233 24.5273C55.7355 24.7377 55.8056 24.9762 55.8267 25.1446H53.8062C53.7992 25.0674 53.7712 24.9903 53.694 24.892C53.5396 24.6886 53.1468 24.5553 52.4452 24.5553C51.4561 24.5553 51.1965 24.6746 51.1965 24.9271C51.1965 25.2078 51.5263 25.2709 52.6276 25.3902C53.0555 25.4252 53.7361 25.4953 53.9677 25.5235Z" fill="#9F9F9F"/>
<path fill-rule="evenodd" clip-rule="evenodd" d="M33.8266 23.8188C34.1984 24.1134 34.4088 24.6115 34.4088 25.3341C34.4088 25.9234 34.2616 26.3653 33.9809 26.674C33.6021 27.1089 32.9777 27.3054 32.1639 27.3125C31.9113 27.3195 29.7506 27.3125 29.7506 27.3125V28.8558H27.8634V23.3488H32.1358C32.8935 23.3488 33.4688 23.503 33.8266 23.8188ZM32.4305 25.762C32.4866 25.6639 32.5147 25.5375 32.5147 25.3621C32.5147 25.1798 32.4795 25.0254 32.4165 24.9412C32.2972 24.7658 32.0727 24.6816 31.7079 24.6816H29.7365V26.0286H31.6938C32.0867 26.0286 32.3182 25.9374 32.4305 25.762Z" fill="#9F9F9F"/>
<path fill-rule="evenodd" clip-rule="evenodd" d="M41.3123 23.91C41.5649 24.1695 41.6842 24.5274 41.6842 25.0254C41.6842 25.4533 41.5789 25.8181 41.4035 26.0636C41.2071 26.3302 40.9055 26.5548 40.5336 26.6109L42.1963 28.8558H40.1057L38.7376 26.9126H37.0328V28.8558H35.1597V23.3488H39.5444C40.4144 23.3488 40.9826 23.5592 41.3123 23.91ZM39.797 25.4885C39.8461 25.4043 39.86 25.292 39.86 25.2008C39.86 25.0956 39.8461 24.9833 39.797 24.9132C39.6987 24.7308 39.5024 24.6816 39.2077 24.6816H37.0399V25.6848H39.2428C39.5444 25.6848 39.7269 25.6287 39.797 25.4885Z" fill="#9F9F9F"/>
<path d="M48.6004 28.8558V27.4879H44.6507V26.7722H48.4391V25.4323H44.6507V24.7237H48.5512V23.3488H42.7986V28.8558H48.6004Z" fill="#9F9F9F"/>
<path d="M62.8289 24.7308V23.3488H56.2555V24.7308H58.5775V28.8558H60.4997V24.7308H62.8289Z" fill="#9F9F9F"/>
<path d="M65.3565 23.3488V28.8558H63.4272V23.3488H65.3565Z" fill="#9F9F9F"/>
<path d="M75.9142 23.3488V28.8558H73.9846V23.3488H75.9142Z" fill="#9F9F9F"/>
<path d="M91.5215 23.3488V26.7301C91.5215 28.2174 90.1742 28.933 88.133 28.933C86.2253 28.933 84.8565 28.2245 84.8565 26.5548V23.3488H86.7583V26.5548C86.7583 27.151 87.2698 27.5229 88.2105 27.5229C89.1083 27.5229 89.6413 27.1371 89.6413 26.5618V23.3488H91.5215Z" fill="#9F9F9F"/>
<path d="M99.0951 27.1441C99.0951 26.1829 98.4846 25.6778 97.061 25.5235C96.8285 25.4953 96.1489 25.4252 95.7208 25.3902C94.6192 25.2709 94.2889 25.2078 94.2889 24.9271C94.2889 24.6746 94.5488 24.5553 95.5384 24.5553C96.2395 24.5553 96.633 24.6886 96.7868 24.892C96.8643 24.9903 96.8917 25.0674 96.8988 25.1446H98.9198C98.8983 24.9762 98.828 24.7377 98.7159 24.5273C98.3511 23.8257 97.4747 23.2645 95.5873 23.2645C93.4614 23.2645 92.2965 24.0151 92.2965 24.9973C92.2965 25.9444 92.9571 26.4985 94.7384 26.66L94.8529 26.6701L95.0436 26.6875L95.945 26.7722C96.8786 26.8704 97.1302 26.9335 97.1302 27.2282C97.1302 27.5017 96.8857 27.6491 95.8544 27.6491C95.0543 27.6491 94.5846 27.5299 94.4153 27.3264C94.3461 27.2422 94.296 27.1159 94.2829 27.0317H92.262C92.2834 27.1721 92.318 27.3966 92.3955 27.579C92.7389 28.3507 93.6367 28.9399 95.7208 28.9399C97.9588 28.9399 99.0951 28.3086 99.0951 27.1441Z" fill="#9F9F9F"/>
<path fill-rule="evenodd" clip-rule="evenodd" d="M50.0371 30.9644C48.4596 30.9644 47.6297 31.7122 47.6297 32.811C47.6297 34.0511 48.5006 34.6803 50.0371 34.6803C51.7287 34.6803 52.44 33.9508 52.44 32.811C52.44 31.6529 51.6375 30.9644 50.0371 30.9644ZM50.0371 33.7639C49.1389 33.7639 48.879 33.3945 48.879 32.8246C48.879 32.2639 49.1617 31.8945 50.0326 31.8945C50.9855 31.8945 51.1998 32.3094 51.1998 32.8246C51.1998 33.3717 50.9399 33.7639 50.0371 33.7639Z" fill="#9F9F9F"/>
<path d="M41.264 33.5132C41.264 32.8885 40.8673 32.5602 39.9417 32.4599C39.7912 32.4417 39.349 32.3961 39.0709 32.3733C38.355 32.2957 38.1407 32.2547 38.1407 32.0724C38.1407 31.9082 38.3094 31.8307 38.9523 31.8307C39.4083 31.8307 39.6636 31.9173 39.7639 32.0495C39.814 32.1134 39.8323 32.1635 39.8369 32.2137H41.15C41.1363 32.1042 41.0907 31.9492 41.0178 31.8125C40.7806 31.3565 40.2107 30.9918 38.9842 30.9918C37.6028 30.9918 36.8459 31.4796 36.8459 32.118C36.8459 32.7335 37.2744 33.0937 38.4325 33.1985C38.5921 33.2123 38.9751 33.2487 39.2168 33.2715C39.8232 33.3353 39.9873 33.3764 39.9873 33.5679C39.9873 33.7457 39.8277 33.8414 39.1575 33.8414C38.6377 33.8414 38.3322 33.7639 38.2228 33.6317C38.1772 33.577 38.1453 33.495 38.1362 33.4402H36.823C36.8367 33.5314 36.8595 33.6773 36.9097 33.7959C37.1331 34.2974 37.7168 34.6803 39.0709 34.6803C40.5254 34.6803 41.264 34.2701 41.264 33.5132Z" fill="#9F9F9F"/>
<path fill-rule="evenodd" clip-rule="evenodd" d="M32.1602 33.6134C32.1602 33.8596 32.0918 34.1013 31.955 34.2608C31.7453 34.5162 31.3532 34.6256 30.8472 34.6256H27.6692V31.0464H30.7605C31.2529 31.0464 31.5675 31.165 31.7408 31.3428C31.8958 31.4978 31.9642 31.703 31.9642 31.9355C31.9642 32.1681 31.9095 32.3596 31.791 32.5009C31.6951 32.6195 31.5311 32.7106 31.3578 32.7335C31.6131 32.7653 31.8548 32.893 31.9915 33.0708C32.1055 33.203 32.1602 33.4037 32.1602 33.6134ZM30.6237 32.3596C30.6693 32.3094 30.6967 32.2364 30.6967 32.1499C30.6967 32.0632 30.6693 31.9902 30.61 31.9401C30.5462 31.8808 30.4276 31.858 30.2543 31.858H28.8637V32.4416H30.2863C30.4413 32.4416 30.5599 32.4189 30.6237 32.3596ZM30.4185 33.8141C30.6328 33.8141 30.7605 33.7867 30.8334 33.7183C30.879 33.6727 30.8972 33.6044 30.8972 33.5177C30.8972 33.4265 30.8745 33.3582 30.8197 33.3034C30.7514 33.2442 30.6328 33.2167 30.4322 33.2167H28.8637V33.8141H30.4185Z" fill="#9F9F9F"/>
<path d="M36.4535 33.7366V34.6256H32.6828V31.0464H36.4216V31.9401H33.8865V32.4006H36.3486V33.2715H33.8865V33.7366H36.4535Z" fill="#9F9F9F"/>
<path d="M45.7008 31.0464V31.9447H44.187V34.6256H42.9379V31.9447H41.4286V31.0464H45.7008Z" fill="#9F9F9F"/>
<path d="M56.6122 31.0464V31.9537H54.182V32.4599H56.4982V33.3582H54.182V34.6256H52.9555V31.0464H56.6122Z" fill="#9F9F9F"/>
<path d="M62.7899 31.9447V31.0464H58.5177V31.9447H60.027V34.6256H61.2763V31.9447H62.7899Z" fill="#9F9F9F"/>
<path d="M67.4511 31.0464V34.6256H66.2291V33.3262H64.3962V34.6256H63.1743V31.0464H64.3962V32.3504H66.2291V31.0464H67.4511Z" fill="#9F9F9F"/>
<path d="M71.9453 34.6256V33.7366H69.3782V33.2715H71.8404V32.4006H69.3782V31.9401H71.9133V31.0464H68.1746V34.6256H71.9453Z" fill="#9F9F9F"/>
<path d="M79.5043 31.0464H80.6846L79.3767 34.6256H78.0365C78.0365 34.6256 77.32 32.4873 77.3152 32.4279C77.3116 32.4873 76.5903 34.6256 76.5903 34.6256H75.2549L73.9144 31.0464H75.2406C75.2406 31.0464 76.0168 33.2988 76.0168 33.3535C76.0168 33.2988 76.7322 31.0464 76.7322 31.0464H78.0139C78.0139 31.0464 78.734 33.2988 78.734 33.3535C78.734 33.2988 79.5043 31.0464 79.5043 31.0464Z" fill="#9F9F9F"/>
<path fill-rule="evenodd" clip-rule="evenodd" d="M83.0264 30.9644C81.4489 30.9644 80.6191 31.7122 80.6191 32.811C80.6191 34.0511 81.4895 34.6803 83.0264 34.6803C84.7182 34.6803 85.4289 33.9508 85.4289 32.811C85.4289 31.6529 84.6264 30.9644 83.0264 30.9644ZM83.0264 33.7639C82.1285 33.7639 81.8686 33.3945 81.8686 32.8246C81.8686 32.2639 82.1512 31.8945 83.0216 31.8945C83.9754 31.8945 84.1889 32.3094 84.1889 32.8246C84.1889 33.3717 83.9289 33.7639 83.0264 33.7639Z" fill="#9F9F9F"/>
<path fill-rule="evenodd" clip-rule="evenodd" d="M89.9441 31.4112C90.1075 31.5799 90.185 31.8124 90.185 32.1362C90.185 32.4143 90.117 32.6514 90.0025 32.811C89.875 32.9842 89.6794 33.1302 89.4374 33.1665L90.5176 34.6256H89.1596L88.2701 33.3627H87.1625V34.6256H85.9451V31.0464H88.7947C89.3599 31.0464 89.7295 31.1833 89.9441 31.4112ZM88.9593 32.4371C88.9903 32.3824 88.9998 32.3094 88.9998 32.2501C88.9998 32.1817 88.9903 32.1089 88.9593 32.0632C88.8949 31.9447 88.7673 31.9127 88.5753 31.9127H87.1672V32.5648H88.598C88.7947 32.5648 88.9128 32.5283 88.9593 32.4371Z" fill="#9F9F9F"/>
<path d="M94.3246 34.6256V33.6727H92.1451V31.0464H90.9099V34.6256H94.3246Z" fill="#9F9F9F"/>
<path fill-rule="evenodd" clip-rule="evenodd" d="M99.1595 32.7699C99.1595 33.3262 99.1046 33.6271 98.9413 33.9098C98.6945 34.3611 98.2068 34.6256 97.3448 34.6256H94.8099V31.0464H97.3173C98.1746 31.0464 98.6813 31.2881 98.9317 31.703C99.1094 31.9812 99.1595 32.2774 99.1595 32.7699ZM97.1123 33.7457C97.4998 33.7457 97.7192 33.6544 97.8515 33.4539C97.9338 33.3307 97.9564 33.0435 97.9564 32.7928C97.9517 32.5648 97.9242 32.3231 97.8515 32.2137C97.7096 31.9994 97.4962 31.9219 97.1218 31.9219H96.032V33.7457H97.1123Z" fill="#9F9F9F"/>
<path d="M50.2497 52.033H48.3604C48.3604 52.033 47.1275 55.6367 47.1275 55.7242C47.1275 55.6367 45.9749 52.033 45.9749 52.033H43.925C43.925 52.033 42.7796 55.6367 42.7796 55.7242C42.7796 55.6367 41.5395 52.033 41.5395 52.033H39.4166L41.5613 57.7595H43.6988C43.6988 57.7595 44.8514 54.3382 44.8587 54.2434C44.8661 54.3382 46.0113 57.7595 46.0113 57.7595H48.156L50.2497 52.033Z" fill="#9F9F9F"/>
<path d="M52.8351 57.7595V52.033H50.8289V57.7595H52.8351Z" fill="#9F9F9F"/>
<path d="M60.6383 52.033V57.7595H58.6831L55.8454 54.5716V57.7595H53.9634V52.033H56.0205L58.7706 55.148V52.033H60.6383Z" fill="#9F9F9F"/>
<path d="M68.4532 57.7595V52.033H66.5857V55.148L63.8356 52.033H61.7784V57.7595H63.6604V54.5716L66.4982 57.7595H68.4532Z" fill="#9F9F9F"/>
<path d="M75.6269 56.337V57.7595H69.5933V52.033H75.5756V53.4628H71.5193V54.1996H75.4588V55.593H71.5193V56.337H75.6269Z" fill="#9F9F9F"/>
<path fill-rule="evenodd" clip-rule="evenodd" d="M83.3375 53.7765C83.3375 53.2585 83.2135 52.8865 82.9512 52.6166C82.6078 52.2519 82.0177 52.033 81.1127 52.033H76.5533V57.7595H78.5015V55.7388H80.2745L81.6969 57.7595H83.8705L82.1417 55.4252C82.528 55.3668 82.8415 55.1333 83.0466 54.8561C83.2279 54.6008 83.3375 54.2214 83.3375 53.7765ZM81.4406 53.9589C81.4406 54.0537 81.4263 54.1704 81.375 54.2579C81.3023 54.4039 81.1127 54.4622 80.7991 54.4622H78.5087V53.419H80.7622C81.0686 53.419 81.2737 53.4701 81.375 53.6597C81.4263 53.7327 81.4406 53.8494 81.4406 53.9589Z" fill="#9F9F9F"/>
<path d="M44.4248 41.9298L43.6337 39.4949L42.8425 41.9298H40.2822L42.3535 43.4346L41.5624 45.8695L43.6337 44.3647L45.7048 45.8695L44.9137 43.4346L46.985 41.9298H44.4248Z" fill="#9F9F9F"/>
<path d="M52.7674 39.4933L53.5747 41.9282H56.1871L54.0737 43.4331L54.881 45.868L52.7674 44.3631L50.6539 45.868L51.4612 43.4331L49.3476 41.9282H51.9601L52.7674 39.4933Z" fill="#9F9F9F"/>
<path d="M62.6355 41.9282L61.8283 39.4933L61.021 41.9282H58.4084L60.522 43.4331L59.7147 45.868L61.8283 44.3631L63.9418 45.868L63.1345 43.4331L65.2481 41.9282H62.6355Z" fill="#9F9F9F"/>
<path d="M70.8896 39.4933L71.6969 41.9282H74.3094L72.1959 43.4331L73.0032 45.868L70.8896 44.3631L68.7761 45.868L69.5834 43.4331L67.4698 41.9282H70.0824L70.8896 39.4933Z" fill="#9F9F9F"/>
<path d="M80.8146 41.9282L80.0229 39.4933L79.2312 41.9282H76.6714L78.7424 43.4331L77.9519 45.868L80.0229 44.3631L82.094 45.868L81.3035 43.4331L83.3745 41.9282H80.8146Z" fill="#9F9F9F"/>
<path d="M114.03 13.3806C114.787 11.4556 114.458 9.24187 113.76 7.38021C113.026 5.42136 111.748 3.46753 109.838 2.43726C109.742 4.50174 110.373 6.54118 111.062 8.38031C111.682 10.0344 112.442 11.7966 113.697 13.1646C113.89 14.2009 114.038 15.2344 114.142 16.2631C113.726 15.1766 113.052 14.1863 112.21 13.3898C111.127 12.3638 109.513 11.5724 108 12.0405C108.444 13.7134 109.454 15.3173 110.651 16.4423C111.593 17.3279 112.836 18.4625 114.301 18.5072C114.361 20.0215 114.327 21.522 114.202 23.0022C113.995 21.9191 113.553 20.8992 112.913 20.1397C112.034 19.0959 110.731 17.821 109.068 18.0343C109.158 19.7276 109.834 21.4626 110.775 22.7662C111.521 23.8022 112.509 25.1227 113.91 25.4638C113.685 26.9178 113.373 28.3478 112.976 29.7471C112.972 28.6757 112.736 27.6239 112.266 26.7804C111.605 25.5909 110.573 24.1073 108.908 23.9913C108.663 25.6526 108.995 27.4686 109.662 28.9129C110.195 30.0674 110.907 31.5397 112.203 32.1488C111.658 33.6547 111.015 35.1186 110.275 36.5314C110.535 35.3136 110.525 34.0303 110.218 32.8756C109.795 31.2841 108.746 29.6122 107.06 29.1272C106.464 30.8844 106.546 32.845 106.893 34.6309C107.178 36.1013 107.737 37.8283 108.991 38.7834C108.171 40.1077 107.264 41.3786 106.273 42.5879C106.806 41.402 107.069 40.1049 106.927 38.9175C106.721 37.1881 106.236 35.3385 104.47 34.4169C103.467 36.1457 103.235 38.0852 103.15 40.0009C103.081 41.5497 103.304 43.46 104.381 44.7201C103.197 45.9498 101.921 47.1007 100.558 48.1621C101.438 47.0329 102.054 45.7079 102.184 44.3975C102.369 42.546 102.28 40.5079 100.636 39.149C99.231 40.6167 98.3916 42.7783 97.9815 44.6557C97.6178 46.3155 97.2387 48.2803 98.1031 49.9139C96.3683 51.0468 94.5154 52.0449 92.5565 52.8902C93.9348 51.908 95.0627 50.5603 95.6004 49.1689C96.3051 47.3454 96.7403 45.1723 95.3691 43.3459C93.5306 44.5233 92.1797 46.532 91.115 48.3642C90.2017 49.9364 89.2562 52.1063 89.7259 53.9786C88.6409 54.3465 87.5285 54.6696 86.3898 54.9453L86.4578 55.2249C87.6 54.9482 88.7172 54.624 89.8058 54.2549C90.5689 56.5091 93.068 57.2541 95.0889 57.5828C97.9683 58.0513 101.397 57.1437 103.856 55.315C102.558 53.4814 99.9106 53.2954 97.9147 53.155L97.8885 53.1533C95.7018 52.9996 93.3362 53.2049 91.1376 53.7764C93.6772 52.8093 96.0547 51.5931 98.2473 50.1635L98.2772 50.2112C99.4778 52.1621 101.891 52.2384 103.784 52.1151C106.354 51.948 109.319 50.3861 111.035 48.2272C109.42 46.811 107.037 47.2072 105.189 47.5142L105.179 47.5159C103.118 47.8586 100.866 48.606 98.9747 49.7571C99.1547 49.6153 99.33 49.4655 99.5017 49.3082C101.34 47.9972 103.036 46.5308 104.575 44.9319C104.596 44.9533 104.618 44.9743 104.639 44.9951C106.137 46.4892 108.31 46.095 110.008 45.6061C112.286 44.9503 114.646 42.9719 115.778 40.7007C114.024 39.7182 111.928 40.5277 110.298 41.1682C108.506 41.8716 106.611 42.9973 105.154 44.4325C105.305 44.2429 105.449 44.0447 105.585 43.8397C106.938 42.3115 108.157 40.675 109.227 38.9486L109.274 38.9773L109.286 38.9848C110.978 40.0736 112.895 39.283 114.414 38.5054C116.475 37.4503 118.133 35.1315 118.848 32.8511C117.019 32.2653 115.213 33.4151 113.808 34.3256C112.27 35.3221 110.713 36.7433 109.645 38.3733C109.723 38.2124 109.797 38.0479 109.865 37.8804C110.892 36.0892 111.763 34.2089 112.469 32.2584L112.506 32.2708L112.512 32.2732C114.051 32.8559 115.765 31.9465 116.882 30.9493C118.434 29.5624 119.53 27.4302 119.786 25.3471C118.182 25.1392 116.669 26.3811 115.635 27.4402C114.445 28.6602 113.375 30.102 112.718 31.7038C112.767 31.529 112.809 31.3514 112.844 31.172C113.441 29.3397 113.894 27.45 114.192 25.5182L114.237 25.5241C115.859 25.7867 117.359 24.5528 118.255 23.3551C119.517 21.6698 120.167 19.3373 120.003 17.2231C118.383 17.3366 117.148 18.8789 116.348 20.1268C115.42 21.572 114.651 23.2077 114.315 24.9191C114.326 24.7822 114.332 24.6446 114.334 24.5065C114.581 22.54 114.669 20.5333 114.588 18.5018C116.244 18.4437 117.471 16.9061 118.103 15.5426C119.005 13.5924 119.151 11.1269 118.549 9.04932C116.971 9.49202 116.091 11.3011 115.573 12.6938C114.974 14.2996 114.557 16.0513 114.553 17.7925C114.468 16.3317 114.293 14.8592 114.03 13.3806Z" fill="#9F9F9F"/>
</svg>
