<svg width="77" height="62" viewBox="0 0 77 62" fill="none" xmlns="http://www.w3.org/2000/svg">
<path d="M25.3641 21.3083C25.3641 21.1508 25.3641 18.8596 25.3641 18.8596H24.0025C24.0025 18.8596 24.0025 21.1153 24.0025 21.1865C24.0025 21.603 23.6165 21.8824 22.9662 21.8824C22.2855 21.8824 21.9146 21.6131 21.9146 21.1813C21.9146 21.1102 21.9146 18.8596 21.9146 18.8596H20.5378C20.5378 18.8596 20.5378 20.9984 20.5378 21.1813C20.5378 22.3904 21.5284 22.9036 22.9103 22.9036C24.3887 22.9036 25.3641 22.3854 25.3641 21.3083Z" fill="#9F9F9F"/>
<path d="M29.9494 22.8477V21.7859H27.5211V18.8596H26.1443V22.8477H29.9494Z" fill="#9F9F9F"/>
<path d="M34.0411 19.8605V18.8596H29.2808V19.8605H30.9624V22.8477H32.3544V19.8605H34.0411Z" fill="#9F9F9F"/>
<path d="M35.8714 22.8477V18.8596H34.4744V22.8477H35.8714Z" fill="#9F9F9F"/>
<path d="M42.2811 22.8477V18.8596H40.5588L39.4717 21.2525L38.4353 18.8596H36.6572V22.8477H37.9527V20.6937L38.8874 22.8477H40.0458L40.9907 20.6937V22.8477H42.2811Z" fill="#9F9F9F"/>
<path d="M44.4389 22.111H46.593L46.9436 22.8477H48.4118L46.4 18.8596H44.759L42.6304 22.8477H44.068L44.4389 22.111ZM46.1612 21.2169H44.886L45.389 20.2567L45.5414 19.891L45.6837 20.2516L46.1612 21.2169Z" fill="#9F9F9F"/>
<path d="M52.73 19.8605V18.8596H47.9699V19.8605H49.6515V22.8477H51.0436V19.8605H52.73Z" fill="#9F9F9F"/>
<path d="M57.3593 22.8477V21.857H54.5001V21.3388H57.2425V20.3685H54.5001V19.8553H57.3242V18.8596H53.1588V22.8477H57.3593Z" fill="#9F9F9F"/>
<path d="M30.9206 24.9677H29.6048C29.6048 24.9677 28.7462 27.4773 28.7462 27.5383C28.7462 27.4773 27.9435 24.9677 27.9435 24.9677H26.516C26.516 24.9677 25.7183 27.4773 25.7183 27.5383C25.7183 27.4773 24.8547 24.9677 24.8547 24.9677H23.3763L24.87 28.9557H26.3585C26.3585 28.9557 27.1612 26.573 27.1662 26.507C27.1713 26.573 27.9689 28.9557 27.9689 28.9557H29.4625L30.9206 24.9677Z" fill="#9F9F9F"/>
<path d="M32.721 28.9557V24.9677H31.324V28.9557H32.721Z" fill="#9F9F9F"/>
<path d="M38.1553 28.9557V24.9677H36.8548V27.1369L34.9395 24.9677H33.5068V28.9557H34.8176V26.7356L36.7938 28.9557H38.1553Z" fill="#9F9F9F"/>
<path d="M43.5978 28.9557V24.9677H42.2972V27.1369L40.382 24.9677H38.9493V28.9557H40.26V26.7356L42.2363 28.9557H43.5978Z" fill="#9F9F9F"/>
<path d="M48.5932 28.9557V27.965H45.7331V27.4468H48.4763V26.4765H45.7331V25.9634H48.5577V24.9677H44.3918V28.9557H48.5932Z" fill="#9F9F9F"/>
<path d="M53.9638 26.1818C53.9638 25.8212 53.877 25.562 53.6941 25.3741C53.4554 25.1201 53.0441 24.9677 52.4138 24.9677H49.239V28.9557H50.5954V27.5485H51.8299L52.8209 28.9557H54.3347L53.1309 27.33C53.3996 27.2893 53.6186 27.1268 53.7602 26.9338C53.8873 26.7559 53.9638 26.4917 53.9638 26.1818ZM52.6432 26.3088C52.6432 26.3749 52.6328 26.4562 52.5967 26.5171C52.546 26.6187 52.4138 26.6594 52.1957 26.6594H50.6005V25.9329H52.1699C52.3838 25.9329 52.5264 25.9684 52.5967 26.1006C52.6328 26.1513 52.6432 26.2327 52.6432 26.3088Z" fill="#9F9F9F"/>
<path d="M25.9369 32.8793C25.9369 32.8141 25.9369 30.9305 25.9369 30.9305H25.4613C25.4613 30.9305 25.4613 32.8064 25.4613 32.8486C25.4613 33.3012 25.0354 33.5583 24.4216 33.5583C23.6966 33.5583 23.3398 33.2821 23.3398 32.8448C23.3398 32.8025 23.3398 30.9305 23.3398 30.9305H22.8604C22.8604 30.9305 22.8604 32.7565 22.8604 32.8294C22.8604 33.6273 23.4818 33.9802 24.4025 33.9802C25.3538 33.9802 25.9369 33.6043 25.9369 32.8793Z" fill="#9F9F9F"/>
<path d="M29.3499 33.9419V33.5008H27.2745V30.9305H26.795V33.9419H29.3499Z" fill="#9F9F9F"/>
<path d="M32.0746 31.3678V30.9305H28.8752V31.3678H30.2332V33.9419H30.7166V31.3678H32.0746Z" fill="#9F9F9F"/>
<path d="M35.4841 31.7821C35.4841 31.5673 35.438 31.41 35.3575 31.2834C35.2156 31.0724 34.9432 30.9305 34.4906 30.9305H32.5418V33.9419H33.0136V32.6721H34.3869L35.227 33.9419H35.7795L34.8703 32.5915C35.1004 32.5648 35.2808 32.4342 35.3767 32.2655C35.4458 32.1504 35.4841 31.9816 35.4841 31.7821ZM35.0084 31.8204C35.0084 31.9049 34.9893 32.0085 34.9547 32.0775C34.8934 32.1887 34.7514 32.2463 34.5213 32.2501H33.0175C33.0175 32.2425 33.0175 31.3602 33.0175 31.3602H34.433C34.7207 31.3602 34.8741 31.4292 34.9547 31.5596C34.9893 31.621 35.0084 31.7246 35.0084 31.8204Z" fill="#9F9F9F"/>
<path d="M36.8493 33.1977H38.7252L39.1088 33.9419H39.6228L38.096 30.9305H37.5321L35.9554 33.9419H36.458L36.8493 33.1977ZM38.5257 32.7718H37.0565L37.6663 31.6172L37.8007 31.3372L37.9349 31.6172L38.5257 32.7718Z" fill="#9F9F9F"/>
<path d="M44.4881 33.6542C44.607 33.516 44.6608 33.3204 44.6608 33.1094C44.6608 32.91 44.6032 32.7105 44.4843 32.5877C44.3653 32.4727 44.1736 32.3768 43.9626 32.3576C44.0853 32.3384 44.1812 32.2617 44.2464 32.1811C44.3501 32.0621 44.4113 31.8704 44.4113 31.6786C44.4113 31.4752 44.3501 31.2911 44.2195 31.1645C44.0777 31.0226 43.836 30.9305 43.4984 30.9305H41.4728V33.9419H43.648C44.0546 33.9419 44.3385 33.8383 44.4881 33.6542ZM43.9165 31.7745C43.9165 31.9087 43.8743 32.0276 43.8015 32.0967C43.7285 32.1773 43.6057 32.2118 43.4753 32.2118H41.9408V31.3448H43.3871C43.5636 31.3448 43.6978 31.3793 43.7899 31.4637C43.8705 31.5404 43.9165 31.6517 43.9165 31.7745ZM44.0699 33.3626C43.974 33.4701 43.8091 33.5238 43.5674 33.5238H41.9408V32.63H43.579C43.8015 32.63 43.9549 32.6759 44.047 32.7642C44.1313 32.8448 44.1659 32.9483 44.1659 33.0673C44.1659 33.19 44.139 33.2936 44.0699 33.3626Z" fill="#9F9F9F"/>
<path d="M48.1433 33.9419V33.5008H45.8033V32.6414H48.0512V32.2041H45.8033V31.3678H48.1164V30.9305H45.3352V33.9419H48.1433Z" fill="#9F9F9F"/>
<path d="M51.8909 33.0519C51.8909 32.5609 51.5654 32.3077 50.7635 32.2157C50.6289 32.1965 50.3373 32.1658 50.18 32.1466C49.4358 32.0584 49.2095 31.9587 49.2095 31.7017C49.2095 31.4523 49.4589 31.3103 50.2107 31.3103C50.7935 31.3103 51.0932 31.4255 51.243 31.6325C51.2854 31.6901 51.3081 31.7592 51.3195 31.8129H51.833C51.8186 31.7246 51.7834 31.6019 51.7297 31.5021C51.523 31.1454 51.0973 30.8883 50.2107 30.8883C49.152 30.8845 48.7146 31.2682 48.7146 31.7438C48.7146 32.2195 49.0561 32.4612 49.9422 32.5648C50.0957 32.5839 50.368 32.6146 50.5023 32.63C51.1893 32.7143 51.4042 32.818 51.4042 33.1057C51.4042 33.3704 51.1583 33.5622 50.3718 33.5622C49.7274 33.5622 49.3821 33.4471 49.244 33.2246C49.2019 33.1632 49.175 33.0673 49.1712 33.0021H48.6647C48.6763 33.1402 48.7146 33.2898 48.7837 33.4087C48.9832 33.7732 49.4512 33.9842 50.3565 33.9842C51.4383 33.9842 51.8909 33.635 51.8909 33.0519Z" fill="#9F9F9F"/>
<path d="M55.3309 31.3678V30.9305H52.1317V31.3678H53.4895V33.9419H53.9731V31.3678H55.3309Z" fill="#9F9F9F"/>
<path d="M21.5024 36.5593C21.5024 36.2524 21.441 36.0452 21.3374 35.888C21.1917 35.6616 20.9077 35.5427 20.4129 35.5427H18.5102V38.5541H18.9858V37.572C18.9858 37.572 20.3286 37.572 20.3938 37.572C20.8579 37.5682 21.1763 37.4608 21.3451 37.2153C21.4525 37.0657 21.5024 36.8508 21.5024 36.5593ZM21.019 36.5593C21.019 36.7127 21.0036 36.8278 20.9538 36.9046C20.8656 37.0464 20.6853 37.1347 20.3132 37.1347C20.2786 37.1347 18.9858 37.1347 18.9858 37.1347V35.9724H20.3286C20.6776 35.9724 20.8579 36.0529 20.9538 36.2102C20.9998 36.2792 21.019 36.4059 21.019 36.5593Z" fill="#9F9F9F"/>
<path d="M24.9746 38.5541V38.1129H22.6346V37.2536H24.8826V36.8163H22.6346V35.98H24.9478V35.5427H22.1666V38.5541H24.9746Z" fill="#9F9F9F"/>
<path d="M28.6341 36.3943C28.6341 36.1795 28.5881 36.0222 28.5075 35.8956C28.3655 35.6846 28.0932 35.5427 27.6405 35.5427H25.6918V38.5541H26.1636V37.2843H27.537L28.3771 38.5541H28.9295L28.0203 37.2037C28.2505 37.1769 28.4308 37.0464 28.5267 36.8777C28.5957 36.7626 28.6341 36.5938 28.6341 36.3943ZM28.1584 36.4326C28.1584 36.5171 28.1392 36.6207 28.1047 36.6897C28.0433 36.8009 27.9013 36.8585 27.6712 36.8623H26.1674C26.1674 36.8546 26.1674 35.9724 26.1674 35.9724H27.583C27.8707 35.9724 28.0241 36.0414 28.1047 36.1718C28.1392 36.2332 28.1584 36.3367 28.1584 36.4326Z" fill="#9F9F9F"/>
<path d="M32.1906 35.98V35.5427H29.5129V38.5541H29.9886V37.2728H32.0909V36.824H29.9886V35.98H32.1906Z" fill="#9F9F9F"/>
<path d="M34.3739 35.489C33.7332 35.489 33.2921 35.6463 32.9775 35.9762C32.7128 36.2332 32.5977 36.59 32.5977 37.0388C32.5977 37.5298 32.7473 37.8981 33.0236 38.1475C33.319 38.4429 33.7716 38.5962 34.3739 38.5962C34.9954 38.5962 35.4787 38.4429 35.7664 38.1321C36.0158 37.8789 36.1462 37.5184 36.1462 37.035C36.1462 36.567 36.0349 36.2102 35.7703 35.957C35.4672 35.6425 35.0145 35.489 34.3739 35.489ZM34.3739 38.1667C33.9519 38.1667 33.6526 38.0746 33.4263 37.8905C33.1962 37.7025 33.0849 37.4147 33.0849 37.0465C33.0849 36.7012 33.1808 36.4135 33.365 36.2409C33.576 36.0414 33.8982 35.9225 34.3701 35.9225C34.8572 35.9225 35.1603 36.0376 35.3866 36.237C35.5785 36.4059 35.6628 36.705 35.6628 37.0426C35.6628 37.384 35.5746 37.6757 35.3789 37.852C35.1526 38.063 34.8343 38.1667 34.3739 38.1667Z" fill="#9F9F9F"/>
<path d="M39.7455 36.3943C39.7455 36.1795 39.6994 36.0222 39.619 35.8956C39.477 35.6846 39.2046 35.5427 38.752 35.5427H36.8032V38.5541H37.275V37.2843H38.6483L39.4885 38.5541H40.0409L39.1317 37.2037C39.3619 37.1769 39.5422 37.0464 39.6381 36.8777C39.7072 36.7626 39.7455 36.5938 39.7455 36.3943ZM39.2698 36.4326C39.2698 36.5171 39.2507 36.6207 39.2162 36.6897C39.1548 36.8009 39.0128 36.8585 38.7827 36.8623H37.2789C37.2789 36.8546 37.2789 35.9724 37.2789 35.9724H38.6944C38.9821 35.9724 39.1356 36.0414 39.2162 36.1718C39.2507 36.2332 39.2698 36.3367 39.2698 36.4326Z" fill="#9F9F9F"/>
<path d="M44.334 38.5541V35.5427H43.7125L42.4734 38.0209L41.2573 35.5427H40.6244V38.5541H41.0809V36.237L42.2163 38.5541H42.715L43.8774 36.237V38.5541H44.334Z" fill="#9F9F9F"/>
<path d="M45.6811 37.8099H47.557L47.9406 38.5541H48.4546L46.9278 35.5427H46.3639L44.7872 38.5541H45.2897L45.6811 37.8099ZM47.3574 37.384H45.8883L46.4981 36.2294L46.6325 35.9493L46.7667 36.2294L47.3574 37.384Z" fill="#9F9F9F"/>
<path d="M51.9105 38.5541V35.5427H51.4538V37.8827L49.4595 35.5427H48.9185V38.5541H49.3827V36.1987L51.3928 38.5541H51.9105Z" fill="#9F9F9F"/>
<path d="M56.049 37.4301H55.5499C55.5344 37.5682 55.4807 37.7063 55.3846 37.8099C55.1779 38.0516 54.8483 38.1551 54.3419 38.1551C53.9162 38.1551 53.4595 38.0362 53.2404 37.7255C53.1257 37.5798 53.0523 37.3649 53.0523 37.0426C53.0523 36.7549 53.103 36.5401 53.2135 36.3943C53.3975 36.099 53.785 35.9455 54.3306 35.9455C54.8596 35.9455 55.1934 36.0912 55.3701 36.2946C55.4693 36.402 55.5272 36.5286 55.5458 36.6782H56.0449C56.0294 36.5094 55.9756 36.3099 55.8609 36.1412C55.615 35.7767 55.1624 35.489 54.3337 35.489C53.5442 35.489 53.072 35.7422 52.8105 36.1219C52.6421 36.3406 52.5574 36.6475 52.5574 37.0388C52.5574 37.4761 52.6617 37.7984 52.8415 38.0247C53.103 38.3815 53.6052 38.5962 54.3647 38.5962C55.1438 38.5962 55.6078 38.3623 55.8382 37.9902C55.9684 37.8099 56.0335 37.595 56.049 37.4301Z" fill="#9F9F9F"/>
<path d="M59.4818 38.5541V38.1129H57.1413V37.2536H59.3898V36.8163H57.1413V35.98H59.4549V35.5427H56.6732V38.5541H59.4818Z" fill="#9F9F9F"/>
<path d="M24.3989 41.5455L24.9726 43.3113H26.8292L25.3272 44.4026L25.9009 46.1683L24.3989 45.0771L22.8968 46.1683L23.4706 44.4026L21.9686 43.3113H23.8252L24.3989 41.5455Z" fill="#9F9F9F"/>
<path d="M31.0221 41.5457L31.6075 43.3113H33.502L31.9694 44.4026L32.5548 46.1684L31.0221 45.0771L29.4895 46.1684L30.0749 44.4026L28.5422 43.3113H30.4368L31.0221 41.5457Z" fill="#9F9F9F"/>
<path d="M37.593 41.5457L38.1785 43.3113H40.0729L38.5403 44.4026L39.1257 46.1684L37.593 45.0771L36.0604 46.1684L36.6457 44.4026L35.1131 43.3113H37.0076L37.593 41.5457Z" fill="#9F9F9F"/>
<path d="M44.164 41.5457L44.7494 43.3113H46.6439L45.1113 44.4026L45.6967 46.1684L44.164 45.0771L42.6314 46.1684L43.2168 44.4026L41.6841 43.3113H43.5787L44.164 41.5457Z" fill="#9F9F9F"/>
<path d="M50.7873 41.5457L51.3608 43.3113H53.2177L51.7152 44.4026L52.2887 46.1684L50.7873 45.0771L49.2851 46.1684L49.8589 44.4026L48.3569 43.3113H50.2135L50.7873 41.5457Z" fill="#9F9F9F"/>
<path d="M27.6169 11.7554L28.0507 13.0904H29.4545L28.3188 13.9156L28.7526 15.2505L27.6169 14.4255L26.4813 15.2505L26.9151 13.9156L25.7794 13.0904H27.1832L27.6169 11.7554Z" fill="#9F9F9F"/>
<path d="M32.6247 11.7535L33.0674 13.0886H34.4997L33.3409 13.9137L33.7835 15.2487L32.6247 14.4236L31.4658 15.2487L31.9085 13.9137L30.7496 13.0886H32.182L32.6247 11.7535Z" fill="#9F9F9F"/>
<path d="M37.5927 11.7535L38.0353 13.0886H39.4677L38.3089 13.9137L38.7515 15.2487L37.5927 14.4236L36.4339 15.2487L36.8765 13.9137L35.7177 13.0886H37.1501L37.5927 11.7535Z" fill="#9F9F9F"/>
<path d="M42.5615 11.7535L43.0041 13.0886H44.4365L43.2778 13.9137L43.7203 15.2487L42.5615 14.4236L41.4027 15.2487L41.8453 13.9137L40.6865 13.0886H42.1189L42.5615 11.7535Z" fill="#9F9F9F"/>
<path d="M47.5686 11.7535L48.0023 13.0886H49.4061L48.2705 13.9137L48.7043 15.2487L47.5686 14.4236L46.4329 15.2487L46.8667 13.9137L45.7311 13.0886H47.1348L47.5686 11.7535Z" fill="#9F9F9F"/>
<path fill-rule="evenodd" clip-rule="evenodd" d="M7.62229 35.7847C5.70794 23.8075 11.295 11.9574 22.4799 6.86865L22.5831 7.09557C11.5107 12.1331 5.96989 23.8672 7.86843 35.7454C9.96889 48.8866 20.5703 56.7678 33.5525 57.1478L33.5452 57.397C20.4618 57.014 9.74435 49.0615 7.62229 35.7847Z" fill="#9F9F9F"/>
<path d="M20.0547 9.9254C17.9878 9.97252 15.5686 11.1381 14.1412 12.8311C15.2859 13.8941 17.1277 13.5011 18.4532 13.2837C20.3449 12.9735 22.3566 12.3725 24.1417 11.5218C23.4077 9.95939 21.4305 9.89409 20.0547 9.9254Z" fill="#9F9F9F"/>
<path d="M18.4292 7.37552C17.2049 9.28264 15.7458 11.1781 14.158 12.8472C12.8295 11.6002 13.6314 9.52495 14.1736 8.23442C15.1558 5.89599 17.5106 3.87944 19.9726 2.84766C20.6483 4.38495 19.1806 6.20496 18.4292 7.37552Z" fill="#9F9F9F"/>
<path d="M14.0734 15.2734C12.138 15.9614 10.4748 17.8981 9.63977 19.8424C11.0315 20.4895 12.6136 19.555 13.771 18.9328C15.3603 18.0785 16.9817 16.8997 18.2575 15.5355C17.1048 14.3192 15.3545 14.8181 14.0734 15.2734Z" fill="#9F9F9F"/>
<path d="M11.7273 13.3677C11.3037 15.5429 10.5933 17.7974 9.66045 19.8523C8.03212 19.0843 8.09412 16.8848 8.16387 15.485C8.28291 13.0958 9.61953 10.3713 11.4805 8.63989C12.6197 9.86129 11.9972 11.9821 11.7273 13.3677Z" fill="#9F9F9F"/>
<path d="M10.3494 22.1779C8.73665 23.4502 7.75912 25.8079 7.53271 27.9134C9.05833 28.0885 10.2778 26.7001 11.1851 25.7476C12.4205 24.4507 13.5899 22.824 14.3326 21.1222C12.8783 20.3288 11.3999 21.3492 10.3494 22.1779Z" fill="#9F9F9F"/>
<path d="M7.55523 21.1039C7.84281 23.3005 7.84343 25.6768 7.55575 27.9162C5.78151 27.6983 5.19303 25.568 4.84542 24.2316C4.24526 21.9248 4.64764 18.9451 5.81675 16.7025C7.27778 17.5113 7.3715 19.6999 7.55523 21.1039Z" fill="#9F9F9F"/>
<path d="M9.08372 29.7145C7.80756 31.5839 7.35878 34.5135 7.93269 36.8683C9.61909 36.469 10.4551 34.5597 11.1263 33.2113C12.0184 31.4192 12.7724 29.3284 13.0423 27.2772C11.2132 26.8965 9.92434 28.483 9.08372 29.7145Z" fill="#9F9F9F"/>
<path d="M5.73365 29.5255C6.72792 31.8275 7.50385 34.3611 7.9579 36.8626C6.02381 37.2781 4.6318 35.2472 3.82312 33.9006C2.38337 31.5034 1.96394 28.1803 2.49136 25.3126C4.26156 25.6676 5.1278 28.1233 5.73365 29.5255Z" fill="#9F9F9F"/>
<path d="M9.97643 37.848C9.29123 40.1157 9.76749 43.1987 11.1548 45.3307C12.6794 44.338 12.8904 42.1534 13.1065 40.5869C13.3914 38.5199 13.5255 36.23 13.1716 34.0865C11.2216 34.3355 10.4341 36.333 9.97643 37.848Z" fill="#9F9F9F"/>
<path d="M6.58769 38.8188C8.29848 40.7818 9.87658 43.02 11.1781 45.3159C9.41293 46.4179 7.34161 44.9124 6.08539 43.8471C3.8568 41.9572 2.40972 38.7451 2.06665 35.7168C3.92128 35.4676 5.5557 37.6345 6.58769 38.8188Z" fill="#9F9F9F"/>
<path d="M13.5719 45.5665C13.7189 48.2062 15.4375 50.976 17.7257 52.5526C18.8307 51.0397 18.1381 48.7216 17.7611 47.1035C17.2537 44.9249 16.5513 42.6564 15.5075 40.6434C13.6874 41.6053 13.4751 43.8282 13.5719 45.5665Z" fill="#9F9F9F"/>
<path d="M10.4943 47.7963C12.9734 49.1738 15.4453 50.7994 17.7437 52.5291C16.3673 54.3415 13.6161 53.6188 11.9107 53.0362C8.90537 52.0096 6.22604 49.3033 4.8266 46.2966C6.60094 45.3826 9.02989 46.9825 10.4943 47.7963Z" fill="#9F9F9F"/>
<path d="M20.6324 52.0153C22.1203 54.7307 25.511 56.5021 28.704 56.9286C29.0477 54.9545 26.9117 52.9999 25.7477 51.7213C24.0906 49.9009 22.3638 48.0117 20.4277 46.4377C18.9772 48.1219 19.7441 50.3941 20.6324 52.0153Z" fill="#9F9F9F"/>
<path d="M18.5075 55.4567C21.8897 55.8083 25.3293 56.3145 28.7095 56.8983C28.3868 59.389 24.4342 59.791 22.6398 59.938C18.9607 60.2396 14.8678 58.7606 12.018 56.2709C13.4335 54.6054 16.7059 55.2694 18.5075 55.4567Z" fill="#9F9F9F"/>
<path d="M25.0221 4.77811C22.7513 5.42591 20.0934 6.65485 18.7803 8.92343C21.1637 8.66365 23.5062 7.8156 25.797 7.16945C28.363 6.4456 31.0648 5.90424 33.5491 4.90511C30.8284 3.8166 27.6211 4.03659 25.0221 4.77811Z" fill="#9F9F9F"/>
<path fill-rule="evenodd" clip-rule="evenodd" d="M68.9523 35.7454C70.8505 23.8672 65.3098 12.1333 54.2376 7.09557L54.341 6.86865C65.5258 11.9575 71.113 23.8075 69.1982 35.7847C67.0768 49.0615 56.3591 57.014 43.2756 57.397L43.2684 57.1478C56.2506 56.7678 66.8515 48.8866 68.9523 35.7454Z" fill="#9F9F9F"/>
<path d="M56.7662 9.9254C58.8328 9.97252 61.2519 11.1381 62.6799 12.8311C61.535 13.8941 59.6926 13.5011 58.3678 13.2837C56.4758 12.9735 54.4639 12.3725 52.6793 11.5218C53.413 9.95939 55.3898 9.89409 56.7662 9.9254Z" fill="#9F9F9F"/>
<path d="M58.3916 7.37552C59.6161 9.28264 61.0751 11.1781 62.6623 12.8472C63.9912 11.6002 63.1893 9.52495 62.6468 8.23442C61.6652 5.89599 59.3102 3.87944 56.8478 2.84766C56.172 4.38495 57.6403 6.20496 58.3916 7.37552Z" fill="#9F9F9F"/>
<path d="M62.7481 15.2734C64.6835 15.9614 66.3462 17.8981 67.1811 19.8424C65.7892 20.4895 64.2072 19.555 63.0498 18.9328C61.4606 18.0785 59.8393 16.8997 58.5641 15.5355C59.7163 14.3192 61.4668 14.8181 62.7481 15.2734Z" fill="#9F9F9F"/>
<path d="M65.0938 13.3677C65.5175 15.5429 66.2274 17.7974 67.1605 19.8523C68.789 19.0843 68.727 16.8848 68.6567 15.485C68.5379 13.0958 67.2018 10.3713 65.3408 8.63989C64.201 9.86129 64.8241 11.9821 65.0938 13.3677Z" fill="#9F9F9F"/>
<path d="M66.4712 22.1779C68.0843 23.4502 69.0618 25.8079 69.2881 27.9134C67.7629 28.0885 66.5436 26.7001 65.6363 25.7476C64.4004 24.4507 63.2307 22.824 62.4888 21.1222C63.9427 20.3288 65.4214 21.3492 66.4712 22.1779Z" fill="#9F9F9F"/>
<path d="M69.2664 21.1039C68.9781 23.3002 68.9781 25.6768 69.2654 27.9162C71.0396 27.6983 71.6286 25.568 71.9758 24.2316C72.5762 21.9248 72.1732 18.9451 71.0045 16.7025C69.5433 17.5113 69.4493 19.6999 69.2664 21.1039Z" fill="#9F9F9F"/>
<path d="M67.7371 29.7145C69.0132 31.5839 69.4617 34.5135 68.8882 36.8683C67.2018 36.469 66.3658 34.5598 65.6942 33.2113C64.8024 31.4192 64.0481 29.3284 63.7784 27.2772C65.6074 26.8965 66.897 28.483 67.7371 29.7145Z" fill="#9F9F9F"/>
<path d="M71.0871 29.5255C70.0931 31.8275 69.317 34.3611 68.8634 36.8626C70.7968 37.2781 72.1887 35.2472 72.9978 33.9006C74.4372 31.5034 74.8567 28.1803 74.3297 25.3126C72.5596 25.6676 71.6927 28.1233 71.0871 29.5255Z" fill="#9F9F9F"/>
<path d="M66.8443 37.848C67.5294 40.1157 67.054 43.1987 65.6663 45.3307C64.1421 44.338 63.9303 42.1534 63.7143 40.5869C63.4301 38.5199 63.2958 36.23 63.6492 34.0865C65.5991 34.3355 66.3865 36.333 66.8443 37.848Z" fill="#9F9F9F"/>
<path d="M70.2326 38.8188C68.5224 40.7819 66.9445 43.02 65.6425 45.3159C67.4075 46.4179 69.4793 44.9124 70.7358 43.8471C72.9637 41.9572 74.4114 38.7451 74.7544 35.7168C72.8996 35.4676 71.2649 37.6345 70.2326 38.8188Z" fill="#9F9F9F"/>
<path d="M63.2483 45.5665C63.1015 48.2062 61.3831 50.976 59.0953 52.5526C57.9896 51.0397 58.683 48.7217 59.0591 47.1035C59.5665 44.9249 60.2692 42.6564 61.3128 40.6434C63.1336 41.6053 63.3454 43.8282 63.2483 45.5665Z" fill="#9F9F9F"/>
<path d="M66.3266 47.7963C63.8476 49.1738 61.3759 50.7994 59.0778 52.5291C60.4542 54.3415 63.2049 53.6188 64.9099 53.0362C67.9159 52.0096 70.5953 49.3033 71.9944 46.2966C70.2202 45.3826 67.7908 46.9825 66.3266 47.7963Z" fill="#9F9F9F"/>
<path d="M56.1885 52.0153C54.7005 54.7307 51.3102 56.5021 48.1167 56.9286C47.7731 54.9545 49.909 52.9999 51.0735 51.7213C52.73 49.9009 54.4567 48.0117 56.3931 46.4377C57.8439 48.1219 57.0762 50.3941 56.1885 52.0153Z" fill="#9F9F9F"/>
<path d="M58.313 55.4567C54.9309 55.8083 51.492 56.3145 48.1111 56.8983C48.434 59.389 52.3869 59.791 54.1807 59.938C57.8604 60.2396 61.9535 58.7606 64.8024 56.2709C63.3877 54.6054 60.1152 55.2694 58.313 55.4567Z" fill="#9F9F9F"/>
<path d="M51.7989 4.77811C54.0691 5.42591 56.7279 6.65485 58.0402 8.92343C55.6574 8.66365 53.3148 7.8156 51.0239 7.16945C48.4579 6.4456 45.7561 5.90424 43.2717 4.90511C45.9926 3.8166 49.1998 4.03659 51.7989 4.77811Z" fill="#9F9F9F"/>
<path d="M39.8871 3.60415L38.722 1.03333L37.5788 3.55631L34.9202 1.90794L36.6286 5.49805H40.8772L42.5239 1.90794L39.8871 3.60415Z" fill="#9F9F9F"/>
<path d="M40.8499 6.05591H36.5945V6.68386H40.8499V6.05591Z" fill="#9F9F9F"/>
<path d="M39.0263 54.6342L39.712 56.7444H41.9309L40.1358 58.0486L40.8214 60.1589L39.0263 58.8547L37.2312 60.1589L37.9169 58.0486L36.1218 56.7444H38.3407L39.0263 54.6342Z" fill="#9F9F9F"/>
</svg>
