<svg width="172" height="62" viewBox="0 0 172 62" fill="none" xmlns="http://www.w3.org/2000/svg">
<path d="M17.0852 26.691C17.0371 27.8213 17.0131 29.2523 17.0131 30.9838C17.0131 32.7153 17.0371 34.1582 17.0852 35.3126C17.1332 36.443 17.2294 37.3447 17.3737 38.0182C17.542 38.6915 17.7705 39.1604 18.0591 39.425C18.3718 39.6895 18.7806 39.8218 19.2857 39.8218C19.7907 39.8218 20.1875 39.6895 20.4761 39.425C20.7887 39.1604 21.0172 38.6915 21.1615 38.0182C21.3298 37.3447 21.438 36.443 21.4862 35.3126C21.5343 34.1582 21.5583 32.7153 21.5583 30.9838C21.5583 29.2523 21.5343 27.8213 21.4862 26.691C21.438 25.5366 21.3298 24.6227 21.1615 23.9494C21.0172 23.276 20.7887 22.8071 20.4761 22.5426C20.1875 22.2779 19.7907 22.1456 19.2857 22.1456C18.7806 22.1456 18.3718 22.2779 18.0591 22.5426C17.7705 22.8071 17.542 23.276 17.3737 23.9494C17.2294 24.6227 17.1332 25.5366 17.0852 26.691Z" fill="#9F9F9F"/>
<path fill-rule="evenodd" clip-rule="evenodd" d="M18.3632 4.18601C9.66501 4.37214 2.75109 11.5499 2.89066 20.2489L3.06215 30.9372L2.89066 41.6254C2.75109 50.3246 9.66501 57.5023 18.3632 57.6883L29.0531 57.9171L39.7429 57.6883C48.4411 57.5023 55.3552 50.3246 55.2156 41.6254L55.0441 30.9372L55.2156 20.2489C55.3552 11.5499 48.4411 4.37214 39.7429 4.18601L29.0531 3.9574L18.3632 4.18601ZM29.4224 44.5473L25.3821 48.0465L21.7026 44.0784C21.414 44.1265 21.1254 44.1627 20.8369 44.1867C20.5723 44.2347 20.2716 44.2589 19.935 44.2589H19.2857C17.5782 44.2589 16.1352 44.0304 14.9568 43.5734C13.7784 43.1165 12.8285 42.3589 12.107 41.3008C11.3856 40.2186 10.8685 38.8357 10.5558 37.1523C10.2432 35.4448 10.0869 33.3885 10.0869 30.9837C10.0869 28.5788 10.2432 26.5346 10.5558 24.8511C10.8685 23.1436 11.3856 21.7609 12.107 20.7027C12.8285 19.6204 13.7784 18.8389 14.9568 18.3579C16.1352 17.8528 17.5782 17.6003 19.2857 17.6003C20.9932 17.6003 22.4361 17.8528 23.6145 18.3579C24.7929 18.8389 25.7429 19.6204 26.4644 20.7027C27.1858 21.7609 27.7029 23.1436 28.0156 24.8511C28.3282 26.5346 28.4845 28.5788 28.4845 30.9837C28.4845 33.4607 28.3162 35.553 27.9794 37.2605C27.6428 38.968 27.0897 40.3629 26.3201 41.4451L29.4224 44.5473ZM40.8096 27.3763V25.9334C40.8096 24.4663 40.6653 23.4683 40.3766 22.9393C40.0882 22.4102 39.6192 22.1456 38.9698 22.1456C38.4648 22.1456 38.056 22.2779 37.7434 22.5425C37.4547 22.807 37.2263 23.2759 37.0579 23.9494C36.9136 24.6227 36.8175 25.5366 36.7693 26.691C36.7212 27.8212 36.6971 29.2522 36.6971 30.9837C36.6971 32.7152 36.7212 34.1581 36.7693 35.3125C36.8175 36.4429 36.9136 37.3447 37.0579 38.0181C37.2263 38.6914 37.4547 39.1603 37.7434 39.425C38.056 39.6894 38.4648 39.8218 38.9698 39.8218C39.3786 39.8218 39.7154 39.7256 39.9798 39.5331C40.2445 39.3167 40.4488 38.968 40.5931 38.487C40.7374 38.0061 40.8336 37.3687 40.8817 36.5751C40.9539 35.7575 40.9899 34.7354 40.9899 33.5088H47.4832V35.4208C47.4832 37.2245 47.2427 38.7035 46.7617 39.8578C46.2808 41.0122 45.6435 41.9261 44.8499 42.5994C44.0561 43.2488 43.1424 43.6816 42.1082 43.8981C41.0982 44.1385 40.052 44.2589 38.9698 44.2589C37.0939 44.2589 35.5549 44.0304 34.3524 43.5734C33.15 43.1165 32.212 42.3589 31.5386 41.3008C30.8652 40.2186 30.3962 38.8357 30.1317 37.1523C29.8913 35.4448 29.771 33.3885 29.771 30.9837C29.771 28.5306 29.9153 26.4505 30.2039 24.743C30.5165 23.0355 31.0336 21.6526 31.7551 20.5945C32.4765 19.5363 33.4264 18.7787 34.6048 18.3217C35.7832 17.8408 37.2383 17.6003 38.9698 17.6003C40.4849 17.6003 41.7715 17.7928 42.8297 18.1776C43.8878 18.5624 44.7416 19.1155 45.391 19.8369C46.0643 20.5344 46.5452 21.3881 46.8339 22.3982C47.1465 23.3841 47.3028 24.5025 47.3028 25.753V27.3763H40.8096Z" fill="#9F9F9F"/>
<path fill-rule="evenodd" clip-rule="evenodd" d="M86.7405 22.3416L92.6215 28.4447L98.5026 22.3416H108.72L97.7227 32.8041L108.72 43.2664H98.5026L92.6215 37.1478L86.7405 43.2664H76.5072L87.505 32.8041L76.5072 22.3416H86.7405ZM86.1735 32.8041L74.2122 21.4249H87.1315L92.6215 27.1222L98.1116 21.4249H110.57V21.4094H131.684C136.512 21.36 140.599 25.3974 140.533 30.2417C140.532 31.9842 140.061 33.5904 139.117 35.02C138.408 36.1021 137.508 36.9924 136.43 37.6693L140.933 43.45V39.7011C140.933 36.7639 143.128 34.8913 145.653 33.6495C148.202 32.3958 151.42 31.6125 154.099 30.9788L154.103 30.9778L154.133 30.9702C155.785 30.564 157.191 30.2183 158.192 29.8453C158.699 29.6563 159.031 29.4852 159.221 29.3398C159.245 29.3214 159.265 29.305 159.282 29.2909C159.224 29.2376 159.105 29.1581 158.872 29.0664C158.327 28.8531 157.397 28.6924 155.988 28.692C154.483 28.7076 153.203 28.83 152.33 29.1363C151.9 29.2873 151.64 29.4594 151.494 29.6208C151.37 29.7595 151.296 29.924 151.302 30.182L151.325 31.1207H141.26V30.204C141.26 28.3221 141.629 26.7486 142.368 25.4594C143.111 24.1644 144.192 23.2189 145.511 22.5407C148.1 21.2101 151.665 20.88 155.641 20.88C159.712 20.88 163.092 21.3498 165.485 22.5591C166.696 23.172 167.68 23.9877 168.356 25.0484C169.034 26.1119 169.367 27.3638 169.367 28.7872C169.367 31.4215 167.777 33.0993 165.829 34.1929C163.937 35.2546 161.556 35.8576 159.579 36.34H169.024V44.152H141.479L141.491 44.1676H130.457L126.51 39.0609H120.581V44.1676H110.998L111.016 44.1832H98.1109L92.6215 38.472L87.1322 44.1832H74.2122L86.1735 32.8041ZM110.57 43.7587V21.8493L99.054 32.8041L110.57 43.7587ZM126.963 38.1442L130.91 43.2508H139.613L135.043 37.3812C135.329 37.2487 135.602 37.102 135.864 36.9416C136.864 36.3292 137.695 35.5157 138.35 34.5166C139.193 33.2399 139.613 31.8076 139.613 30.2351C139.677 25.9069 136.011 22.2794 131.689 22.3261H111.488V43.2508H119.661V38.1442H126.963ZM154.768 37.2567C155.054 36.9067 155.573 36.6091 156.261 36.34C157.072 36.0224 158.117 35.7443 159.291 35.4664C163.316 34.4854 168.449 33.1465 168.449 28.7872C168.449 23.6806 163.706 21.7967 155.641 21.7967C148.057 21.7967 142.679 23.0322 142.212 29.2872C142.19 29.5816 142.178 29.887 142.178 30.204H150.384C150.383 30.1695 150.383 30.1354 150.384 30.1019C150.429 28.242 152.996 27.8058 155.984 27.7752C158.901 27.7752 160.242 28.4291 160.242 29.3166C160.242 30.412 157.654 31.0488 154.404 31.8481L154.315 31.8698C148.917 33.1465 141.851 34.9214 141.851 39.7011V43.2352H168.104V37.2567H154.768ZM159.333 29.3612C159.333 29.3612 159.328 29.3554 159.325 29.3419C159.333 29.3541 159.333 29.3612 159.333 29.3612ZM130.506 30.2351C130.506 29.7451 130.121 29.3615 129.63 29.3615H120.581V31.0933H129.63C129.894 31.0933 130.079 31.0132 130.244 30.848C130.432 30.6599 130.506 30.4718 130.506 30.2351ZM131.424 30.2351C131.424 29.2387 130.629 28.4447 129.63 28.4447H119.661V32.0099H129.63C130.129 32.0099 130.551 31.8387 130.894 31.4963C131.253 31.1381 131.424 30.7178 131.424 30.2351Z" fill="#9F9F9F"/>
<path d="M77.2637 58.3622H81.1788V53.0016L85.1012 58.3622H87.0587L90.9812 53.0016V58.3622H94.8963V48.3137H90.0025L86.08 53.338L82.165 48.3137H77.2637V58.3622Z" fill="#9F9F9F"/>
<path d="M103.144 48.067C99.3641 48.0745 96.271 49.166 96.2859 52.9716V53.7043C96.271 57.5024 99.3641 58.6015 103.144 58.6089C106.917 58.6015 110.01 57.5024 109.996 53.7043V52.9716C109.996 49.1735 106.925 48.067 103.144 48.067ZM106.081 53.4576C106.103 55.1024 104.743 55.4015 103.144 55.4239C101.538 55.4015 100.178 55.1024 100.201 53.4576V53.2109C100.178 51.5734 101.538 51.2744 103.144 51.252C104.743 51.2744 106.103 51.5734 106.081 53.2109V53.4576Z" fill="#9F9F9F"/>
<path d="M120.963 53.3529C120.963 54.3622 120.388 55.1921 119.372 55.1921H115.084V51.5137H119.372C120.388 51.5137 120.963 52.336 120.963 53.3529ZM111.169 48.3287V58.3771H120.105C122.862 58.4145 124.909 56.0819 124.886 53.3529C124.909 50.609 122.862 48.2912 120.105 48.3287H111.169Z" fill="#9F9F9F"/>
<path d="M135.787 53.4651C135.809 55.1174 134.45 55.4015 132.85 55.4239C131.245 55.4015 129.893 55.1174 129.907 53.4651V48.3137H125.992V53.7118C125.977 57.5099 129.085 58.6015 132.85 58.6089C136.616 58.6015 139.724 57.5099 139.71 53.7118V48.3137H135.787V53.4651Z" fill="#9F9F9F"/>
<path d="M141.472 48.3137V58.3622H153.226V55.1773H145.387V48.3137H141.472Z" fill="#9F9F9F"/>
<path d="M154.562 58.3771H166.316V55.7978H158.477V54.5117H166.316V52.1866H158.477V50.9005H166.316V48.3287H154.562V58.3771Z" fill="#9F9F9F"/>
<path d="M79.5179 10.0329V7.91527H85.3207C85.6018 7.91527 85.8465 8.01698 86.046 8.22963C86.2545 8.43317 86.3543 8.68275 86.3543 8.97864C86.3543 9.26542 86.2545 9.51501 86.046 9.72778C85.8465 9.9312 85.6018 10.0329 85.3207 10.0329H79.5179ZM74.767 4.28115V16.7094H79.5179V13.6763H86.5085C89.02 13.7133 91.1507 11.5402 91.1144 8.97864C91.1507 6.40801 89.02 4.25332 86.5085 4.28115H74.767Z" fill="#9F9F9F"/>
<path d="M100.571 3.9574C95.9833 3.96663 92.2296 5.31678 92.2477 10.0236V10.9299C92.2296 15.6275 95.9833 16.9868 100.571 16.996C105.149 16.9868 108.904 15.6275 108.885 10.9299V10.0236C108.885 5.32601 105.159 3.9574 100.571 3.9574ZM104.134 10.6246C104.161 12.659 102.511 13.0289 100.571 13.0568C98.6217 13.0289 96.9716 12.659 96.9987 10.6246V10.3195C96.9716 8.29436 98.6217 7.92447 100.571 7.89677C102.511 7.92447 104.161 8.29436 104.134 10.3195V10.6246Z" fill="#9F9F9F"/>
<path d="M127.409 12.1505L124.588 4.28113H119.239L116.411 12.1505L113.591 4.28113H108.241L113.591 16.7094H119.239L121.914 10.4952L124.588 16.7094H130.237L135.587 4.28113H130.237L127.409 12.1505Z" fill="#9F9F9F"/>
<path d="M135.95 16.7094H150.212V13.5191H140.7V11.9285H150.212V9.05262H140.7V7.46212H150.212V4.28113H135.95V16.7094Z" fill="#9F9F9F"/>
<path d="M152.742 4.27175V16.7001H157.492V13.667H161.736L164.03 16.7001H169.089L166.432 13.2139C167.23 12.8347 167.874 12.2614 168.354 11.5124C168.844 10.7542 169.089 9.90346 169.089 8.96937C169.125 6.39861 166.994 4.24405 164.483 4.27175H152.742ZM163.286 7.906C163.866 7.906 164.329 8.3776 164.329 8.96937C164.329 9.25602 164.229 9.50574 164.02 9.71838C163.821 9.92193 163.576 10.0236 163.286 10.0236H157.492V7.906H163.286Z" fill="#9F9F9F"/>
</svg>
