<svg width="72" height="72" viewBox="0 0 72 72" fill="none" xmlns="http://www.w3.org/2000/svg">
<rect width="72" height="72" rx="5" fill="#003061"/>
<path d="M45 34C45 41 36 47 36 47C36 47 27 41 27 34C27 31.6131 27.9482 29.3239 29.636 27.636C31.3239 25.9482 33.6131 25 36 25C38.3869 25 40.6761 25.9482 42.364 27.636C44.0518 29.3239 45 31.6131 45 34Z" stroke="white" stroke-width="2" stroke-linecap="round" stroke-linejoin="round"/>
<path d="M36 37C37.6569 37 39 35.6569 39 34C39 32.3431 37.6569 31 36 31C34.3431 31 33 32.3431 33 34C33 35.6569 34.3431 37 36 37Z" stroke="white" stroke-width="2" stroke-linecap="round" stroke-linejoin="round"/>
</svg>
